<?xml version="1.0" encoding="utf-8"?>
<!-- Generator: Adobe Illustrator 18.0.0, SVG Export Plug-In . SVG Version: 6.00 Build 0)  -->
<!DOCTYPE svg PUBLIC "-//W3C//DTD SVG 1.1//EN" "http://www.w3.org/Graphics/SVG/1.1/DTD/svg11.dtd">
<svg version="1.1" id="Layer_1" xmlns="http://www.w3.org/2000/svg" xmlns:xlink="http://www.w3.org/1999/xlink" x="0px" y="0px"
	 viewBox="0 0 165.6 45.1" enable-background="new 0 0 165.6 45.1" xml:space="preserve">
<path fill="#FFFFFF" d="M79.8,18.2c-0.6-0.5-1.4-0.9-2.1-1c-0.8-0.2-1.6-0.2-2.4-0.1c-0.8,0.1-1.5,0.4-2.2,0.8
	c-0.7,0.4-1.2,0.8-1.6,1.4c-0.4-0.7-0.9-1.2-1.6-1.6c-0.7-0.4-1.5-0.6-2.3-0.6s-1.6,0.1-2.3,0.4c-0.7,0.3-1.3,0.8-1.8,1.4v-1.3h-3.2
	v14.4h3.5V25c0-0.5,0-1,0.1-1.6c0-0.5,0.1-1,0.3-1.5c0.2-0.5,0.5-0.8,0.8-1.1c0.4-0.3,0.9-0.4,1.6-0.4c0.6,0,1,0.1,1.4,0.3
	c0.4,0.2,0.6,0.5,0.9,0.9c0.2,0.4,0.4,0.8,0.4,1.2c0.1,0.5,0.1,0.9,0.1,1.4v7.7h3.5V25c0-0.5,0-1.1,0.1-1.6c0-0.5,0.2-1,0.4-1.5
	c0.2-0.4,0.5-0.8,0.9-1.1c0.4-0.3,0.9-0.4,1.6-0.4c0.6,0,1.1,0.1,1.4,0.3c0.3,0.2,0.6,0.5,0.8,0.9c0.2,0.4,0.3,0.8,0.4,1.2
	c0.1,0.5,0.1,0.9,0.1,1.4v7.7H82v-8.1c0-1.4-0.2-2.5-0.6-3.5S80.5,18.7,79.8,18.2"/>
<path fill="#FFFFFF" d="M97.2,19.3c-0.7-0.7-1.5-1.3-2.4-1.7c-0.9-0.4-1.9-0.6-3-0.6c-1.1,0-2.1,0.2-3,0.6c-0.9,0.4-1.8,0.9-2.5,1.6
	c-0.7,0.7-1.3,1.5-1.7,2.4c-0.4,0.9-0.6,1.9-0.6,3c0,1,0.2,2,0.6,3c0.4,0.9,1,1.7,1.6,2.4c0.7,0.7,1.5,1.2,2.4,1.7
	c0.9,0.4,1.9,0.6,2.9,0.6c1.1,0,2.1-0.2,3-0.6c0.9-0.4,1.7-0.9,2.4-1.6c0.7-0.7,1.2-1.5,1.6-2.4c0.4-0.9,0.6-1.9,0.6-3
	c0-1-0.2-2-0.6-3C98.4,20.8,97.9,20,97.2,19.3 M95.6,26.4c-0.2,0.5-0.5,1-0.9,1.4c-0.4,0.4-0.8,0.7-1.4,0.9
	c-0.5,0.2-1.1,0.3-1.7,0.3c-0.6,0-1.1-0.1-1.6-0.3c-0.5-0.2-1-0.5-1.3-0.9c-0.4-0.4-0.7-0.8-0.9-1.4c-0.2-0.5-0.3-1.1-0.3-1.6
	c0-0.6,0.1-1.1,0.3-1.6c0.2-0.5,0.5-1,0.9-1.4c0.4-0.4,0.8-0.7,1.3-1c0.5-0.2,1-0.4,1.6-0.4c0.6,0,1.2,0.1,1.7,0.3
	c0.5,0.2,1,0.5,1.3,0.9c0.4,0.4,0.7,0.9,0.9,1.4c0.2,0.5,0.3,1.1,0.3,1.7C95.9,25.3,95.8,25.9,95.6,26.4"/>
<path fill="#FFFFFF" d="M112.8,19c-0.7-0.7-1.5-1.3-2.3-1.6c-0.9-0.3-1.7-0.4-2.6-0.4c-0.9,0.1-1.7,0.3-2.5,0.7
	c-0.8,0.4-1.5,0.9-2.2,1.6c-0.6,0.7-1.1,1.5-1.5,2.4c-0.4,0.9-0.6,1.9-0.6,3c0,1.1,0.2,2.2,0.6,3.1c0.4,0.9,0.9,1.7,1.6,2.4
	c0.7,0.7,1.4,1.2,2.3,1.6c0.8,0.4,1.7,0.6,2.6,0.6s1.8-0.2,2.6-0.6c0.9-0.4,1.6-1,2.3-1.9v1.9h3.2V12.7h-3.5V19z M112.4,27
	c-0.4,0.6-0.9,1.1-1.6,1.4c-0.6,0.3-1.3,0.5-2,0.5c-0.7,0-1.4-0.2-2-0.5c-0.6-0.3-1.2-0.8-1.6-1.4c-0.4-0.7-0.6-1.5-0.6-2.4
	c0-0.9,0.2-1.7,0.6-2.3c0.4-0.6,0.9-1.1,1.6-1.4c0.6-0.3,1.3-0.5,2-0.5c0.7,0,1.4,0.2,2,0.5c0.6,0.3,1.2,0.8,1.6,1.4
	c0.4,0.6,0.6,1.4,0.6,2.3C113,25.6,112.8,26.4,112.4,27"/>
<path fill="#FFFFFF" d="M128.1,24.6c0,0.5,0,1-0.1,1.6c-0.1,0.5-0.2,1-0.4,1.4c-0.2,0.4-0.5,0.8-0.9,1c-0.4,0.3-0.9,0.4-1.6,0.4
	c-0.6,0-1.2-0.1-1.5-0.4c-0.4-0.3-0.7-0.6-0.9-1.1c-0.2-0.4-0.3-0.9-0.4-1.4c-0.1-0.5-0.1-1-0.1-1.5v-7.1h-3.5v8.1
	c0,0.9,0.1,1.8,0.3,2.6c0.2,0.8,0.5,1.5,1,2.1c0.5,0.6,1.1,1.1,1.8,1.4c0.8,0.3,1.7,0.5,2.8,0.5c0.8,0,1.5-0.1,2.2-0.4
	c0.7-0.3,1.2-0.8,1.6-1.5v1.5h3.2V17.5h-3.5V24.6z"/>
<rect x="134.1" y="12.7" fill="#FFFFFF" width="3.5" height="19.2"/>
<path fill="#FFFFFF" d="M149.5,24.6c0,0.5,0,1-0.1,1.6c-0.1,0.5-0.2,1-0.4,1.4c-0.2,0.4-0.5,0.8-0.9,1c-0.4,0.3-0.9,0.4-1.6,0.4
	c-0.6,0-1.2-0.1-1.5-0.4c-0.4-0.3-0.7-0.6-0.9-1.1c-0.2-0.4-0.3-0.9-0.4-1.4c-0.1-0.5-0.1-1-0.1-1.5v-7.1h-3.5v8.1
	c0,0.9,0.1,1.8,0.3,2.6c0.2,0.8,0.5,1.5,1,2.1c0.5,0.6,1.1,1.1,1.8,1.4c0.8,0.3,1.7,0.5,2.8,0.5c0.8,0,1.5-0.1,2.2-0.4
	c0.7-0.3,1.2-0.8,1.6-1.5v1.5h3.2V17.5h-3.5V24.6z"/>
<path fill="#FFFFFF" d="M165.1,25.4c-0.3-0.5-0.7-0.9-1.2-1.2c-0.5-0.3-1-0.6-1.5-0.7c-0.6-0.2-1.1-0.3-1.5-0.5s-0.9-0.3-1.2-0.5
	c-0.3-0.2-0.5-0.5-0.5-0.8c0-0.4,0.1-0.7,0.4-0.9c0.3-0.2,0.6-0.3,0.9-0.3s0.6,0.1,0.9,0.2c0.3,0.2,0.5,0.4,0.5,0.8h3.4
	c0-1-0.3-1.8-0.7-2.5c-0.5-0.6-1.1-1.1-1.8-1.5c-0.7-0.3-1.5-0.5-2.3-0.5c-0.8,0-1.6,0.2-2.3,0.5c-0.7,0.3-1.3,0.8-1.8,1.5
	c-0.5,0.7-0.7,1.5-0.7,2.4c0,0.8,0.2,1.5,0.5,2c0.3,0.5,0.7,0.9,1.2,1.2c0.5,0.3,1,0.5,1.5,0.7c0.6,0.2,1.1,0.4,1.5,0.5
	c0.5,0.2,0.9,0.4,1.2,0.6c0.3,0.2,0.5,0.6,0.5,1c0,0.4-0.2,0.7-0.5,1c-0.3,0.3-0.7,0.4-1.1,0.4c-0.4,0-0.8-0.1-1.2-0.4
	c-0.4-0.3-0.6-0.7-0.7-1.2h-3.5c0,1.1,0.3,2.1,0.8,2.8c0.5,0.7,1.2,1.3,2,1.6c0.8,0.3,1.6,0.5,2.5,0.5c0.9,0,1.7-0.2,2.5-0.6
	c0.8-0.4,1.4-0.9,1.9-1.7c0.5-0.7,0.8-1.6,0.8-2.7C165.6,26.6,165.4,25.9,165.1,25.4"/>
<path fill="#FFFFFF" d="M22.6,0C10.1,0,0,10.1,0,22.6C0,35,10.1,45.1,22.6,45.1C35,45.1,45.1,35,45.1,22.6C45.1,10.1,35,0,22.6,0z
	 M32.6,18.7c-0.8,0.4-1.6,0.5-2.4,0.5l-2.8,10.1c0.7,0.3,1.3,0.8,1.7,1.5c0.8,1.6,0.2,3.5-1.4,4.3c-1.6,0.8-3.5,0.2-4.3-1.4
	c-0.8-1.6-0.2-3.5,1.4-4.3c0.6-0.3,1.2-0.4,1.8-0.3l1.9-10.4c-0.7-0.3-1.4-0.8-1.9-1.5l-8.2,4.9c0.6,2.6-0.6,5.4-3.1,6.7
	c-3,1.5-6.6,0.3-8.1-2.6c-1.5-3-0.3-6.6,2.6-8.1c2.5-1.3,5.5-0.6,7.3,1.4l8.8-3.8c-0.7-2.2,0.3-4.7,2.4-5.7c2.4-1.2,5.3-0.3,6.5,2.1
	C35.9,14.6,35,17.5,32.6,18.7z"/>
</svg>
